<?xml version="1.0" encoding="UTF-8"?>
<svg id="Layer_1" data-name="Layer 1" xmlns="http://www.w3.org/2000/svg" viewBox="0 0 1200 400">
  <defs>
    <style>
      .cls-1 {
        fill: #010101;
      }

      .cls-2 {
        fill: #fff;
      }
    </style>
  </defs>
  <polygon class="cls-1" points="268.33 116.67 268.33 308.33 76.67 308.33 76.67 325 285 325 285 116.67 268.33 116.67"/>
  <polygon class="cls-1" points="243.33 91.67 243.33 75 35 75 35 283.33 51.67 283.33 51.67 91.67 243.33 91.67"/>
  <rect class="cls-1" x="64.17" y="104.38" width="191.67" height="191.67"/>
  <path class="cls-2" d="M125.1,272.08h-11.8c-2.63,0-4.76-2.13-4.76-4.76v-126.37c0-2.6,2.1-4.7,4.7-4.7h12.11c3.37,0,6.11,2.74,6.11,6.11v123.36c0,3.51-2.85,6.36-6.36,6.36Z"/>
  <path class="cls-2" d="M197.39,272.08h-11.8c-2.63,0-4.76-2.13-4.76-4.76v-126.37c0-2.6,2.1-4.7,4.7-4.7h12.11c3.37,0,6.11,2.74,6.11,6.11v123.36c0,3.51-2.85,6.36-6.36,6.36Z"/>
  <path class="cls-2" d="M153.27,216.25h-31.6c-2.45,0,3.33-1.99,3.33-4.44l-4.17-18.47c0-2.45,6.16,0,8.61,0h23.82c2.45,0,4.44,1.99,4.44,4.44v14.03c0,2.45-1.99,4.44-4.44,4.44Z"/>
  <circle class="cls-2" cx="169.27" cy="204.27" r="11.56"/>
  <g>
    <path class="cls-2" d="M353.56,122.23h24.94v60.94h64.83v-60.94h24.94v153.22h-24.94v-69.1h-64.83v69.1h-24.94V122.23Z"/>
    <path class="cls-2" d="M585.56,275.45h-22.34v-15.45h-.4c-2.79,5.58-6.95,10.05-12.47,13.41-5.52,3.36-11.14,5.04-16.86,5.04-13.56,0-23.37-3.61-29.42-10.84-6.05-7.22-9.08-18.13-9.08-32.73v-70.39h22.74v68.03c0,9.73,1.73,16.6,5.19,20.6,3.46,4.01,8.31,6.01,14.56,6.01,4.79,0,8.78-.78,11.97-2.36,3.19-1.57,5.79-3.68,7.78-6.33,1.99-2.65,3.42-5.83,4.29-9.55.86-3.72,1.3-7.73,1.3-12.02v-64.38h22.74v110.95Z"/>
    <path class="cls-2" d="M609.5,164.51h21.54v16.31l.4.43c3.46-6.15,7.98-10.98,13.57-14.49,5.59-3.5,11.77-5.26,18.55-5.26,11.3,0,20.21,3.15,26.73,9.44,6.51,6.3,9.78,15.74,9.78,28.33v76.18h-22.74v-69.74c-.27-8.73-1.99-15.06-5.19-18.99-3.19-3.93-8.18-5.9-14.96-5.9-3.86,0-7.32.75-10.37,2.25-3.06,1.5-5.65,3.58-7.78,6.22-2.13,2.65-3.79,5.76-4.99,9.33-1.2,3.58-1.79,7.37-1.79,11.37v65.45h-22.74v-110.95Z"/>
    <path class="cls-2" d="M713.63,164.51h17.16v-33.26h22.74v33.26h20.55v18.24h-20.55v59.23c0,2.58.1,4.79.3,6.65.2,1.86.66,3.43,1.4,4.72.73,1.29,1.83,2.25,3.29,2.9,1.46.64,3.46.97,5.98.97,1.6,0,3.19-.03,4.79-.11,1.6-.07,3.19-.32,4.79-.75v18.88c-2.53.29-4.99.57-7.38.86-2.39.29-4.86.43-7.38.43-5.98,0-10.81-.61-14.46-1.82-3.66-1.21-6.52-3-8.58-5.37-2.06-2.36-3.46-5.33-4.19-8.91-.73-3.57-1.17-7.65-1.3-12.23v-65.45h-17.16v-18.24Z"/>
    <path class="cls-2" d="M876.81,250.77c0,3,.36,5.15,1.1,6.44.73,1.29,2.16,1.93,4.29,1.93h2.39c.93,0,2-.14,3.19-.43v16.95c-.8.29-1.83.61-3.09.97-1.27.36-2.56.68-3.89.96-1.33.29-2.66.5-3.99.64-1.33.14-2.46.21-3.39.21-4.66,0-8.51-1-11.57-3-3.06-2-5.06-5.51-5.98-10.52-4.52,4.72-10.07,8.16-16.66,10.3-6.58,2.15-12.94,3.22-19.05,3.22-4.66,0-9.11-.68-13.37-2.04-4.26-1.36-8.01-3.36-11.27-6.01-3.26-2.65-5.85-6.01-7.78-10.09-1.93-4.08-2.89-8.83-2.89-14.27,0-6.87,1.16-12.45,3.49-16.74,2.33-4.29,5.39-7.65,9.18-10.09,3.79-2.43,8.04-4.18,12.77-5.26,4.72-1.07,9.48-1.89,14.26-2.47,4.12-.86,8.04-1.47,11.77-1.82,3.72-.36,7.01-.97,9.88-1.82,2.86-.86,5.12-2.18,6.78-3.97,1.66-1.79,2.49-4.47,2.49-8.05,0-3.15-.7-5.72-2.09-7.73-1.4-2-3.13-3.54-5.19-4.61-2.06-1.07-4.36-1.79-6.88-2.15-2.53-.36-4.92-.54-7.18-.54-6.38,0-11.64,1.43-15.76,4.29-4.12,2.86-6.45,7.3-6.98,13.3h-22.74c.4-7.15,2-13.09,4.79-17.81,2.79-4.72,6.35-8.51,10.67-11.37,4.32-2.86,9.21-4.86,14.66-6.01,5.45-1.14,11.04-1.72,16.76-1.72,5.05,0,10.04.57,14.96,1.72,4.92,1.15,9.34,3,13.27,5.58,3.92,2.57,7.08,5.9,9.48,9.98s3.59,9.05,3.59,14.91v57.08ZM854.06,219.87c-3.46,2.43-7.71,3.9-12.77,4.4-5.06.5-10.11,1.25-15.16,2.25-2.39.43-4.72,1.04-6.98,1.82-2.26.79-4.26,1.86-5.98,3.22-1.73,1.36-3.09,3.15-4.09,5.37-1,2.22-1.5,4.9-1.5,8.05,0,2.72.73,5.01,2.19,6.87,1.46,1.86,3.22,3.33,5.29,4.4,2.06,1.07,4.32,1.82,6.78,2.25,2.46.43,4.69.64,6.68.64,2.52,0,5.25-.36,8.18-1.07,2.92-.71,5.69-1.93,8.28-3.65,2.59-1.72,4.75-3.9,6.48-6.54,1.73-2.65,2.59-5.9,2.59-9.76v-18.24Z"/>
    <path class="cls-2" d="M897.75,164.51h83.78v17.17l-59.05,74.46h62.04v19.31h-90.77v-17.17l57.05-74.46h-53.06v-19.31Z"/>
    <path class="cls-2" d="M1018.84,226.31c0,4.29.56,8.44,1.7,12.45,1.13,4.01,2.82,7.51,5.09,10.52,2.26,3,5.12,5.4,8.58,7.19,3.46,1.79,7.58,2.68,12.37,2.68,6.65,0,12-1.54,16.06-4.61,4.05-3.08,7.08-7.69,9.08-13.84h21.54c-1.2,6.01-3.26,11.37-6.18,16.09-2.93,4.72-6.45,8.69-10.57,11.91-4.12,3.22-8.75,5.65-13.86,7.3-5.12,1.64-10.47,2.47-16.06,2.47-8.11,0-15.29-1.43-21.54-4.29-6.25-2.86-11.54-6.87-15.86-12.02-4.32-5.15-7.58-11.3-9.77-18.46-2.19-7.15-3.29-15.02-3.29-23.61,0-7.87,1.16-15.34,3.49-22.43,2.33-7.08,5.65-13.3,9.97-18.67,4.32-5.36,9.54-9.62,15.66-12.77,6.12-3.15,13.03-4.72,20.75-4.72,8.11,0,15.39,1.82,21.84,5.47,6.45,3.65,11.8,8.48,16.06,14.49,4.25,6.01,7.35,12.91,9.28,20.71,1.93,7.8,2.42,15.85,1.5,24.14h-75.8ZM1071.9,210.21c-.27-3.86-1.03-7.58-2.29-11.16-1.27-3.57-2.99-6.69-5.19-9.33-2.19-2.65-4.86-4.79-7.98-6.44-3.13-1.64-6.62-2.47-10.47-2.47s-7.62.75-10.87,2.25c-3.26,1.5-6.05,3.58-8.38,6.22-2.33,2.65-4.19,5.76-5.59,9.33-1.4,3.58-2.16,7.44-2.29,11.59h53.06Z"/>
  </g>
</svg>