<?xml version="1.0" encoding="UTF-8"?>
<svg id="Layer_1" data-name="Layer 1" xmlns="http://www.w3.org/2000/svg" viewBox="0 0 1200 1200">
  <defs>
    <style>
      .cls-1 {
        fill: #010101;
      }

      .cls-2 {
        fill: #26083f;
      }

      .cls-3 {
        fill: #fff;
      }
    </style>
  </defs>
  <polygon class="cls-1" points="1120 200 1120 1120 200 1120 200 1200 1200 1200 1200 200 1120 200"/>
  <polygon class="cls-1" points="1000 80 1000 0 0 0 0 1000 80 1000 80 80 1000 80"/>
  <rect class="cls-2" x="140" y="141" width="920" height="920"/>
  <path class="cls-3" d="M432.48,946h-56.62c-12.62,0-22.86-10.23-22.86-22.86V316.56c0-12.46,10.1-22.56,22.56-22.56h58.11c16.2,0,29.33,13.13,29.33,29.33v592.15c0,16.86-13.66,30.52-30.52,30.52Z"/>
  <path class="cls-3" d="M779.48,946h-56.62c-12.62,0-22.86-10.23-22.86-22.86V316.56c0-12.46,10.1-22.56,22.56-22.56h58.11c16.2,0,29.33,13.13,29.33,29.33v592.15c0,16.86-13.66,30.52-30.52,30.52Z"/>
  <path class="cls-3" d="M567.67,678h-151.67c-11.78,0,16-9.55,16-21.33l-20-88.67c0-11.78,29.55,0,41.33,0h114.35c11.78,0,21.33,9.55,21.33,21.33v67.35c0,11.78-9.55,21.33-21.33,21.33Z"/>
  <circle class="cls-3" cx="644.5" cy="620.5" r="55.5"/>
</svg>

