<?xml version="1.0" encoding="UTF-8"?>
<svg id="Layer_1" xmlns="http://www.w3.org/2000/svg" version="1.1" viewBox="0 0 1200 400">
  <!-- Generator: Adobe Illustrator 29.8.1, SVG Export Plug-In . SVG Version: 2.1.1 Build 2)  -->
  <defs>
    <style>
      .st0 {
        fill: #010101;
      }

      .st1 {
        fill: #fff;
      }
    </style>
  </defs>
  <polygon class="st1" points="268.3 116.7 268.3 308.3 76.7 308.3 76.7 325 285 325 285 116.7 268.3 116.7"/>
  <polygon class="st1" points="243.3 91.7 243.3 75 35 75 35 283.3 51.7 283.3 51.7 91.7 243.3 91.7"/>
  <rect class="st1" x="64.2" y="104.4" width="191.7" height="191.7"/>
  <path class="st0" d="M125.1,272.1h-11.8c-2.6,0-4.8-2.1-4.8-4.8v-126.4c0-2.6,2.1-4.7,4.7-4.7h12.1c3.4,0,6.1,2.7,6.1,6.1v123.4c0,3.5-2.9,6.4-6.4,6.4h0Z"/>
  <path class="st0" d="M197.4,272.1h-11.8c-2.6,0-4.8-2.1-4.8-4.8v-126.4c0-2.6,2.1-4.7,4.7-4.7h12.1c3.4,0,6.1,2.7,6.1,6.1v123.4c0,3.5-2.9,6.4-6.4,6.4h0Z"/>
  <path class="st0" d="M153.3,216.2h-31.6c-2.4,0,3.3-2,3.3-4.4l-4.2-18.5c0-2.4,6.2,0,8.6,0h23.8c2.4,0,4.4,2,4.4,4.4v14c0,2.4-2,4.4-4.4,4.4h0Z"/>
  <circle class="st0" cx="169.3" cy="204.3" r="11.6"/>
  <g>
    <path class="st1" d="M353.6,122.2h24.9v60.9h64.8v-60.9h24.9v153.2h-24.9v-69.1h-64.8v69.1h-24.9V122.2Z"/>
    <path class="st1" d="M585.6,275.5h-22.3v-15.5h-.4c-2.8,5.6-7,10-12.5,13.4-5.5,3.4-11.1,5-16.9,5-13.6,0-23.4-3.6-29.4-10.8-6-7.2-9.1-18.1-9.1-32.7v-70.4h22.7v68c0,9.7,1.7,16.6,5.2,20.6,3.5,4,8.3,6,14.6,6s8.8-.8,12-2.4c3.2-1.6,5.8-3.7,7.8-6.3,2-2.6,3.4-5.8,4.3-9.6.9-3.7,1.3-7.7,1.3-12v-64.4h22.7v111h0Z"/>
    <path class="st1" d="M609.5,164.5h21.5v16.3l.4.4c3.5-6.1,8-11,13.6-14.5,5.6-3.5,11.8-5.3,18.5-5.3,11.3,0,20.2,3.1,26.7,9.4,6.5,6.3,9.8,15.7,9.8,28.3v76.2h-22.7v-69.7c-.3-8.7-2-15.1-5.2-19-3.2-3.9-8.2-5.9-15-5.9s-7.3.8-10.4,2.2c-3.1,1.5-5.7,3.6-7.8,6.2-2.1,2.6-3.8,5.8-5,9.3-1.2,3.6-1.8,7.4-1.8,11.4v65.5h-22.7v-110.9h0Z"/>
    <path class="st1" d="M713.6,164.5h17.2v-33.3h22.7v33.3h20.5v18.2h-20.5v59.2c0,2.6,0,4.8.3,6.6s.7,3.4,1.4,4.7c.7,1.3,1.8,2.2,3.3,2.9,1.5.6,3.5,1,6,1s3.2,0,4.8-.1c1.6,0,3.2-.3,4.8-.8v18.9c-2.5.3-5,.6-7.4.9-2.4.3-4.9.4-7.4.4-6,0-10.8-.6-14.5-1.8-3.7-1.2-6.5-3-8.6-5.4-2.1-2.4-3.5-5.3-4.2-8.9-.7-3.6-1.2-7.6-1.3-12.2v-65.4h-17.2v-18.2h0Z"/>
    <path class="st1" d="M876.8,250.8c0,3,.4,5.1,1.1,6.4.7,1.3,2.2,1.9,4.3,1.9h2.4c.9,0,2-.1,3.2-.4v17c-.8.3-1.8.6-3.1,1-1.3.4-2.6.7-3.9,1-1.3.3-2.7.5-4,.6s-2.5.2-3.4.2c-4.7,0-8.5-1-11.6-3s-5.1-5.5-6-10.5c-4.5,4.7-10.1,8.2-16.7,10.3-6.6,2.1-12.9,3.2-19,3.2s-9.1-.7-13.4-2c-4.3-1.4-8-3.4-11.3-6-3.3-2.6-5.8-6-7.8-10.1-1.9-4.1-2.9-8.8-2.9-14.3s1.2-12.4,3.5-16.7c2.3-4.3,5.4-7.6,9.2-10.1,3.8-2.4,8-4.2,12.8-5.3,4.7-1.1,9.5-1.9,14.3-2.5,4.1-.9,8-1.5,11.8-1.8,3.7-.4,7-1,9.9-1.8,2.9-.9,5.1-2.2,6.8-4,1.7-1.8,2.5-4.5,2.5-8.1s-.7-5.7-2.1-7.7c-1.4-2-3.1-3.5-5.2-4.6s-4.4-1.8-6.9-2.1c-2.5-.4-4.9-.5-7.2-.5-6.4,0-11.6,1.4-15.8,4.3s-6.5,7.3-7,13.3h-22.7c.4-7.1,2-13.1,4.8-17.8s6.3-8.5,10.7-11.4,9.2-4.9,14.7-6c5.5-1.1,11-1.7,16.8-1.7s10,.6,15,1.7c4.9,1.1,9.3,3,13.3,5.6,3.9,2.6,7.1,5.9,9.5,10s3.6,9.1,3.6,14.9v57.1h0ZM854.1,219.9c-3.5,2.4-7.7,3.9-12.8,4.4s-10.1,1.2-15.2,2.2c-2.4.4-4.7,1-7,1.8-2.3.8-4.3,1.9-6,3.2-1.7,1.4-3.1,3.1-4.1,5.4s-1.5,4.9-1.5,8.1.7,5,2.2,6.9,3.2,3.3,5.3,4.4c2.1,1.1,4.3,1.8,6.8,2.2s4.7.6,6.7.6,5.2-.4,8.2-1.1c2.9-.7,5.7-1.9,8.3-3.6s4.8-3.9,6.5-6.5c1.7-2.6,2.6-5.9,2.6-9.8v-18.2h0Z"/>
    <path class="st1" d="M897.8,164.5h83.8v17.2l-59,74.5h62v19.3h-90.8v-17.2l57-74.5h-53.1v-19.3h0Z"/>
    <path class="st1" d="M1018.8,226.3c0,4.3.6,8.4,1.7,12.4,1.1,4,2.8,7.5,5.1,10.5,2.3,3,5.1,5.4,8.6,7.2s7.6,2.7,12.4,2.7,12-1.5,16.1-4.6c4.1-3.1,7.1-7.7,9.1-13.8h21.5c-1.2,6-3.3,11.4-6.2,16.1-2.9,4.7-6.4,8.7-10.6,11.9s-8.8,5.6-13.9,7.3c-5.1,1.6-10.5,2.5-16.1,2.5-8.1,0-15.3-1.4-21.5-4.3-6.2-2.9-11.5-6.9-15.9-12s-7.6-11.3-9.8-18.5c-2.2-7.1-3.3-15-3.3-23.6s1.2-15.3,3.5-22.4c2.3-7.1,5.7-13.3,10-18.7,4.3-5.4,9.5-9.6,15.7-12.8,6.1-3.1,13-4.7,20.8-4.7s15.4,1.8,21.8,5.5,11.8,8.5,16.1,14.5c4.2,6,7.3,12.9,9.3,20.7s2.4,15.9,1.5,24.1h-75.8ZM1071.9,210.2c-.3-3.9-1-7.6-2.3-11.2-1.3-3.6-3-6.7-5.2-9.3-2.2-2.6-4.9-4.8-8-6.4-3.1-1.6-6.6-2.5-10.5-2.5s-7.6.8-10.9,2.2c-3.3,1.5-6.1,3.6-8.4,6.2-2.3,2.6-4.2,5.8-5.6,9.3-1.4,3.6-2.2,7.4-2.3,11.6h53.1,0Z"/>
  </g>
</svg>